0
SECTION
2
HEADER
9
$INSUNITS
70
4
9
$ACADVER
1
AC1014
9
$HANDSEED
5
FFFF
0
ENDSEC
0
SECTION
2
TABLES
0
TABLE
2
VPORT
5
8
100
AcDbSymbolTable
0
ENDTAB
0
TABLE
2
LTYPE
5
5
100
AcDbSymbolTable
0
LTYPE
5
14
100
AcDbSymbolTableRecord
100
AcDbLinetypeTableRecord
2
BYBLOCK
70
0
0
LTYPE
5
15
100
AcDbSymbolTableRecord
100
AcDbLinetypeTableRecord
2
BYLAYER
70
0
0
ENDTAB
0
TABLE
2
LAYER
5
2
100
AcDbSymbolTable
70
2
0
LAYER
5
50
100
AcDbSymbolTableRecord
100
AcDbLayerTableRecord
2
0
70
0
6
CONTINUOUS
0
ENDTAB
0
TABLE
2
STYLE
5
3
100
AcDbSymbolTable
70
1
0
STYLE
5
11
100
AcDbSymbolTableRecord
100
AcDbTextStyleTableRecord
2
STANDARD
70
0
0
ENDTAB
0
TABLE
2
VIEW
5
6
100
AcDbSymbolTable
70
0
0
ENDTAB
0
TABLE
2
UCS
5
7
100
AcDbSymbolTable
70
0
0
ENDTAB
0
TABLE
2
APPID
5
9
100
AcDbSymbolTable
70
2
0
APPID
5
12
100
AcDbSymbolTableRecord
100
AcDbRegAppTableRecord
2
ACAD
70
0
0
ENDTAB
0
TABLE
2
DIMSTYLE
5
A
100
AcDbSymbolTable
70
1
0
ENDTAB
0
TABLE
2
BLOCK_RECORD
5
1
100
AcDbSymbolTable
70
1
0
BLOCK_RECORD
5
1F
100
AcDbSymbolTableRecord
100
AcDbBlockTableRecord
2
*MODEL_SPACE
0
BLOCK_RECORD
5
1B
100
AcDbSymbolTableRecord
100
AcDbBlockTableRecord
2
*PAPER_SPACE
0
ENDTAB
0
ENDSEC
0
SECTION
2
BLOCKS
0
BLOCK
5
20
100
AcDbEntity
100
AcDbBlockBegin
2
*MODEL_SPACE
0
ENDBLK
5
21
100
AcDbEntity
100
AcDbBlockEnd
0
BLOCK
5
1C
100
AcDbEntity
100
AcDbBlockBegin
2
*PAPER_SPACE
0
ENDBLK
5
1D
100
AcDbEntity
100
AcDbBlockEnd
0
ENDSEC
0
SECTION
2
ENTITIES
0
LWPOLYLINE
5
100
100
AcDbEntity
8
0
100
AcDbPolyline
90
4
70
1
43
0.0
10
-81.550000164035026
20
-265.29999991422022
10
-81.550000164034941
20
-267.7999999698178
10
-73.79999999168237
20
-267.7999999698178
10
-73.799999991682455
20
-265.29999991422022
0
LWPOLYLINE
5
101
100
AcDbEntity
8
0
100
AcDbPolyline
90
4
70
1
43
0.0
10
38.299999995683436
20
-338.99999996179315
10
22.799999650978364
20
-338.99999996179332
10
22.799999650978364
20
-341.75000002295064
10
38.299999995683436
20
-341.75000002295064
0
LWPOLYLINE
5
102
100
AcDbEntity
8
0
100
AcDbPolyline
90
4
70
1
43
0.0
10
40.000001500509548
20
-316.00001173630341
10
21.500000783613515
20
-316.00001173630341
10
21.500000783613871
20
-321.00001184749897
10
40.000001500509939
20
-321.00001184749897
0
LWPOLYLINE
5
103
100
AcDbEntity
8
0
100
AcDbPolyline
90
4
70
1
43
0.0
10
46.500001727019296
20
-292.50001086350841
10
41.500001541318277
20
-292.50001086350835
10
41.500001541318312
20
-302.50001123491035
10
46.500001727019331
20
-302.50001123491035
0
ARC
5
104
100
AcDbEntity
8
0
100
AcDbCircle
10
-19.750012908805807
20
-278.57000568672578
30
-1.3322676295501878e-14
40
99.50000221278431
100
AcDbArc
50
243.11114013461116
51
243.1111545544841
0
LINE
5
105
100
AcDbEntity
8
0
100
AcDbLine
10
-64.750013932051019
20
-367.31261297461208
30
-2.6645352591003757e-14
11
-64.750013931922979
21
-366.80776882864541
31
3.8146969583152668e-07
0
ARC
5
106
100
AcDbEntity
8
0
100
AcDbCircle
10
-19.750012908805807
20
-278.57000568672578
30
-1.3322676295501878e-14
40
99.050002202776639
100
AcDbArc
50
242.97906675679937
51
242.97908125917417
0
LINE
5
107
100
AcDbEntity
8
0
100
AcDbLine
10
-64.749991597691661
20
-366.80778021878143
30
1.7763568394002505e-14
11
-64.74999159704933
21
-364.27438319889109
31
0
0
ARC
5
108
100
AcDbEntity
8
0
100
AcDbCircle
10
-19.749990574568486
20
-278.57000568673021
30
0
40
96.800002152738926
100
AcDbArc
50
242.29780056781894
51
297.7021994031345
0
LINE
5
109
100
AcDbEntity
8
0
100
AcDbLine
10
25.250010404463765
20
-364.27438322170417
30
0
11
25.250010403268206
21
-368.99124415267664
31
0
0
ARC
5
110
100
AcDbEntity
8
0
100
AcDbCircle
10
-19.749990574568486
20
-278.57000568673021
30
0
40
101.00000224614284
100
AcDbArc
50
296.45818445098138
51
335.22602405160876
0
LINE
5
111
100
AcDbEntity
8
0
100
AcDbLine
10
71.954769595407583
20
-320.89301852712265
30
0
11
69.230858990761959
21
-319.63590028589533
31
0
0
ARC
5
112
100
AcDbEntity
8
0
100
AcDbCircle
10
-19.749990574568486
20
-278.57000568673021
30
0
40
97.999996370396403
100
AcDbArc
50
335.22602187115382
51
339.54388675004998
0
LINE
5
113
100
AcDbEntity
8
0
100
AcDbLine
10
72.070141780137646
20
-312.82000647169178
30
4.4408920985006262e-15
11
52.250011017961207
21
-312.82000646666773
31
4.4408920985006262e-15
0
ARC
5
114
100
AcDbEntity
8
0
100
AcDbCircle
10
52.250011018467859
20
-310.82000642218981
30
8.8817841970012523e-15
40
2.0000000444781207
100
AcDbArc
50
180
51
269.99999998548549
0
LINE
5
115
100
AcDbEntity
8
0
100
AcDbLine
10
50.250010973989738
20
-310.82000642168276
30
8.8817841970012523e-15
11
50.250010990338723
21
-246.32000498726484
31
4.4408920985006262e-15
0
ARC
5
116
100
AcDbEntity
8
0
100
AcDbCircle
10
52.250011034817305
20
-246.32000498777174
30
4.4408920985006262e-15
40
2.0000000444780852
100
AcDbArc
50
89.999999985485488
51
180
0
LINE
5
117
100
AcDbEntity
8
0
100
AcDbLine
10
52.250011035323958
20
-244.32000494329367
30
4.4408920985006262e-15
11
72.07013609387576
21
-244.32000494831769
31
4.4408920985006262e-15
0
ARC
5
118
100
AcDbEntity
8
0
100
AcDbCircle
10
-19.750012908805807
20
-278.57000568672578
30
-1.3322676295501878e-14
40
98.000011803344194
100
AcDbArc
50
20.456109822776625
51
24.773972628085932
0
LINE
5
119
100
AcDbEntity
8
0
100
AcDbLine
10
69.230854405621017
20
-237.50411325839627
30
4.4408920985006262e-15
11
71.95476800621698
21
-236.24698940290753
31
4.4408920985006262e-15
0
ARC
5
120
100
AcDbEntity
8
0
100
AcDbCircle
10
-19.749990574568486
20
-278.57000568673021
30
0
40
101.00000224614288
100
AcDbArc
50
24.773978099795578
51
49.941878988350936
0
LINE
5
121
100
AcDbEntity
8
0
100
AcDbLine
10
45.250010890564525
20
-201.26541162367607
30
4.4408920985006262e-15
11
45.250010889151575
21
-206.83967579423182
31
4.4408920985006262e-15
0
ARC
5
122
100
AcDbEntity
8
0
100
AcDbCircle
10
-19.749990574568486
20
-278.57000568673021
30
0
40
96.800002152738898
100
AcDbArc
50
47.818017169609725
51
132.18198280134308
0
LINE
5
123
100
AcDbEntity
8
0
100
AcDbLine
10
-84.749992001923459
20
-206.83967576127884
30
0
11
-84.749992000510559
21
-201.26541159072329
31
8.8817841970012523e-15
0
ARC
5
124
100
AcDbEntity
8
0
100
AcDbCircle
10
-19.749990574568486
20
-278.57000568673021
30
0
40
101.00000224614284
100
AcDbArc
50
130.05812098260199
51
155.22602187115757
0
LINE
5
125
100
AcDbEntity
8
0
100
AcDbLine
10
-111.45474913389774
20
-236.24698935641658
30
4.4408920985006262e-15
11
-108.73083553393872
21
-237.50411321328639
31
0
0
ARC
5
126
100
AcDbEntity
8
0
100
AcDbCircle
10
-19.749978184309818
20
-278.57000480828827
30
0
40
98.000002179425763
100
AcDbArc
50
155.22602537298661
51
159.54388859752171
0
LINE
5
127
100
AcDbEntity
8
0
100
AcDbLine
10
-111.57011722564886
20
-244.32000490176853
30
4.4408920985006262e-15
11
-91.74999216709719
21
-244.32000490679263
31
4.4408920985006262e-15
0
ARC
5
128
100
AcDbEntity
8
0
100
AcDbCircle
10
-91.749992167604802
20
-246.3200049512707
30
0
40
2.0000000444780142
100
AcDbArc
50
0
51
89.999999985458004
0
LINE
5
129
100
AcDbEntity
8
0
100
AcDbLine
10
-89.749992123126788
20
-246.32000495177772
30
0
11
-89.749992139475665
21
-310.82000638619564
31
4.4408920985006262e-15
0
ARC
5
130
100
AcDbEntity
8
0
100
AcDbCircle
10
-91.749992183954305
20
-310.82000638568877
30
4.4408920985006262e-15
40
2.0000000444780497
100
AcDbArc
50
269.99999998548651
51
360
0
LINE
5
131
100
AcDbEntity
8
0
100
AcDbLine
10
-91.749992184460922
20
-312.82000643016681
30
4.4408920985006262e-15
11
-111.57012294663818
21
-312.82000642514276
31
4.4408920985006262e-15
0
ARC
5
132
100
AcDbEntity
8
0
100
AcDbCircle
10
-19.749990574568486
20
-278.57000568673021
30
0
40
97.999996221457394
100
AcDbArc
50
200.45611322090335
51
204.77397809979971
0
LINE
5
133
100
AcDbEntity
8
0
100
AcDbLine
10
-108.73084016071769
20
-319.63590024078604
30
4.4408920985006262e-15
11
-111.45475076600053
21
-320.89301848063246
31
0
0
ARC
5
134
100
AcDbEntity
8
0
100
AcDbCircle
10
-19.749990574568486
20
-278.57000568673021
30
0
40
101.00000224614291
100
AcDbArc
50
204.77397591934482
51
243.54181551997198
0
LINE
5
135
100
AcDbEntity
8
0
100
AcDbLine
10
-64.749991598245089
20
-368.99124412986339
30
0
11
-64.749991597819559
21
-367.31262429995121
31
-2.6645352591003757e-14
0
LWPOLYLINE
5
136
100
AcDbEntity
8
0
100
AcDbPolyline
90
2
70
1
43
0.0
10
39.769296252954717
20
-352.61360416611922
42
-192.19795276127434
10
39.796046846553885
20
-352.64549209737623
0
LINE
5
137
100
AcDbEntity
8
0
100
AcDbLine
10
-79.269277439628041
20
-352.61360413594548
30
4.4408920985006262e-15
11
-79.296031486490051
21
-352.64548916957085
31
4.4408920985006262e-15
0
ARC
5
138
100
AcDbEntity
8
0
100
AcDbCircle
10
-80.814810034152885
20
-351.34423056519097
30
4.4408920985006262e-15
40
1.9999950657110823
100
AcDbArc
50
-39.396873892690728
51
319.41070286860418
0
LWPOLYLINE
5
139
100
AcDbEntity
8
0
100
AcDbPolyline
90
4
70
1
43
0.0
10
-66.479991607740658
20
-253.67238069912906
10
-66.479991608881164
20
-257.1723807547267
10
-57.980193031200784
20
-257.17238075675448
10
-57.980193030060185
20
-253.6723807011569
0
LWPOLYLINE
5
140
100
AcDbEntity
8
0
100
AcDbPolyline
90
4
70
1
43
0.0
10
26.98001046983272
20
-257.17238077841682
10
26.980010470466418
20
-253.67238072281924
10
18.480211892784979
20
-253.67238072079152
10
18.480211892151317
20
-257.17238077638916
0
LWPOLYLINE
5
141
100
AcDbEntity
8
0
100
AcDbPolyline
90
4
70
1
43
0.0
10
-93.100828091089028
20
-324.00848020738641
10
-100.34205365764191
20
-329.35307148240702
10
-92.028245007609854
20
-340.61720014148921
10
-84.787019441057112
20
-335.27260886646843
0
CIRCLE
5
142
100
AcDbEntity
8
0
100
AcDbCircle
10
-77.599999991254151
20
-280.99999996833014
30
4.4408920985006262e-15
40
6.0000000000000062
0
CIRCLE
5
143
100
AcDbEntity
8
0
100
AcDbCircle
10
44.799999994950852
20
-266.09999997000943
30
-1.7763568394002505e-14
40
2.0000000000000013
0
CIRCLE
5
144
100
AcDbEntity
8
0
100
AcDbCircle
10
44.799999994950852
20
-306.85002139864207
30
-4.4408920985006262e-15
40
2.0000000000000107
0
CIRCLE
5
145
100
AcDbEntity
8
0
100
AcDbCircle
10
27.099999996945705
20
-266.09999997000943
30
-1.7763568394002505e-14
40
1.9999999999999971
0
CIRCLE
5
146
100
AcDbEntity
8
0
100
AcDbCircle
10
27.099999996945741
20
-306.85000087625019
30
-8.8817841970012523e-15
40
2.0000000000000062
0
CIRCLE
5
147
100
AcDbEntity
8
0
100
AcDbCircle
10
-73.092617599067779
20
-202.38886075655867
30
-1.7763568394002505e-14
40
1.4999999999999858
0
CIRCLE
5
148
100
AcDbEntity
8
0
100
AcDbCircle
10
33.592614154319058
20
-202.38886078359752
30
-3.5527136788005009e-14
40
1.500000000000008
0
CIRCLE
5
149
100
AcDbEntity
8
0
100
AcDbCircle
10
-48.749990931704588
20
-238.07000558309679
30
-1.3322676295501878e-14
40
1.2500000000000266
0
CIRCLE
5
150
100
AcDbEntity
8
0
100
AcDbCircle
10
9.2500103581596349
20
-238.07000559779655
30
-1.7763568394002505e-14
40
1.2500000000000044
0
CIRCLE
5
151
100
AcDbEntity
8
0
100
AcDbCircle
10
-48.749990929930469
20
-287.0700066728096
30
-4.4408920985006262e-15
40
1.249999999999982
0
CIRCLE
5
152
100
AcDbEntity
8
0
100
AcDbCircle
10
9.250010359933718
20
-287.07000668750942
30
-4.4408920985006262e-15
40
1.2500000000000178
0
CIRCLE
5
153
100
AcDbEntity
8
0
100
AcDbCircle
10
-37.74999068707519
20
-238.07000558588467
30
-1.7763568394002505e-14
40
1.2500000000000089
0
CIRCLE
5
154
100
AcDbEntity
8
0
100
AcDbCircle
10
-37.749990685301071
20
-287.07000667559754
30
-8.8817841970012523e-15
40
1.25
0
CIRCLE
5
155
100
AcDbEntity
8
0
100
AcDbCircle
10
20.250010602789033
20
-238.07000560058452
30
-3.1086244689504383e-14
40
1.2500000000000133
0
CIRCLE
5
156
100
AcDbEntity
8
0
100
AcDbCircle
10
20.250010604563151
20
-287.0700066902973
30
-1.7763568394002505e-14
40
1.2500000000000133
0
CIRCLE
5
157
100
AcDbEntity
8
0
100
AcDbCircle
10
-23.549990642055327
20
-211.42000419241543
30
0
40
1.5
0
CIRCLE
5
158
100
AcDbEntity
8
0
100
AcDbCircle
10
64.238852644747084
20
-322.96453931527356
30
4.4408920985006262e-15
40
1.4999999999999802
0
CIRCLE
5
159
100
AcDbEntity
8
0
100
AcDbCircle
10
-103.73883381638936
20
-322.96453927269459
30
4.4408920985006262e-15
40
1.49999999999999
0
CIRCLE
5
160
100
AcDbEntity
8
0
100
AcDbCircle
10
59.110332293666659
20
-225.59070167718946
30
1.3322676295501878e-14
40
2
0
CIRCLE
5
161
100
AcDbEntity
8
0
100
AcDbCircle
10
64.238852667253468
20
-234.1754721007658
30
4.4408920985006262e-15
40
1.5000000000000002
0
CIRCLE
5
162
100
AcDbEntity
8
0
100
AcDbCircle
10
4.0613508470604742
20
-189.70482276553059
30
4.4408920985006262e-15
40
2.0000000444780501
0
CIRCLE
5
163
100
AcDbEntity
8
0
100
AcDbCircle
10
-43.561331951146194
20
-189.70482275345921
30
4.4408920985006262e-15
40
2.0000000444780501
0
CIRCLE
5
164
100
AcDbEntity
8
0
100
AcDbCircle
10
-103.73883379388414
20
-234.17547205818687
30
4.4408920985006262e-15
40
1.5000000000000002
0
CIRCLE
5
165
100
AcDbEntity
8
0
100
AcDbCircle
10
-28.649997170279633
20
-296.22000605253038
30
-4.4408920985006262e-15
40
1.5000051668119099
0
CIRCLE
5
166
100
AcDbEntity
8
0
100
AcDbCircle
10
-57.749986194929086
20
-246.57000381762026
30
0
40
2.5000000000000004
0
CIRCLE
5
167
100
AcDbEntity
8
0
100
AcDbCircle
10
-70.112802761226305
20
-326.34770678257416
30
-4.4408920985006262e-15
40
1.4999999999999905
0
CIRCLE
5
168
100
AcDbEntity
8
0
100
AcDbCircle
10
-83.667416188229964
20
-272.04716712704891
30
8.8817841970012523e-15
40
1.4999999999999905
0
CIRCLE
5
169
100
AcDbEntity
8
0
100
AcDbCircle
10
-62.24999152542452
20
-301.0471677761401
30
0
40
1.4999999999999905
0
CIRCLE
5
170
100
AcDbEntity
8
0
100
AcDbCircle
10
-51.349991298286461
20
-357.79000744048517
30
1.7763568394002505e-14
40
1.5000000000000102
0
CIRCLE
5
171
100
AcDbEntity
8
0
100
AcDbCircle
10
-51.349991283312946
20
-298.71000612660566
30
8.8817841970012523e-15
40
1.49999999999998
0
CIRCLE
5
172
100
AcDbEntity
8
0
100
AcDbCircle
10
-84.84999203113847
20
-313.32000644303525
30
4.4408920985006262e-15
40
1.5000000000000202
0
CIRCLE
5
173
100
AcDbEntity
8
0
100
AcDbCircle
10
-77.249991847085198
20
-254.00100512576418
30
0
40
1.5000000000000202
0
CIRCLE
5
174
100
AcDbEntity
8
0
100
AcDbCircle
10
-70.749835717289471
20
-243.5523493685449
30
1.7763568394002505e-14
40
6.0000000000000089
0
CIRCLE
5
175
100
AcDbEntity
8
0
100
AcDbCircle
10
-52.749991474011182
20
-313.55573022637236
30
1.4654943925052066e-13
40
5.75
0
CIRCLE
5
176
100
AcDbEntity
8
0
100
AcDbCircle
10
13.250010307138638
20
-313.55573024462296
30
4.4408920985006262e-15
40
5.75
0
CIRCLE
5
177
100
AcDbEntity
8
0
100
AcDbCircle
10
-0.74999015675427216
20
-296.22000609518489
30
0
40
1.5000000000000002
0
CIRCLE
5
178
100
AcDbEntity
8
0
100
AcDbCircle
10
31.313910919517092
20
-243.70326637970234
30
-1.3322676295501878e-14
40
6.0000000000000089
0
CIRCLE
5
179
100
AcDbEntity
8
0
100
AcDbCircle
10
37.750010710404389
20
-254.00100515491431
30
4.4408920985006262e-15
40
1.5000000000000202
0
CIRCLE
5
180
100
AcDbEntity
8
0
100
AcDbCircle
10
45.350010864384984
20
-313.32000647603826
30
4.4408920985006262e-15
40
1.5000000000000202
0
CIRCLE
5
181
100
AcDbEntity
8
0
100
AcDbCircle
10
-10.849923907112355
20
-217.68630261863476
30
0
40
1.49999999999999
0
CIRCLE
5
182
100
AcDbEntity
8
0
100
AcDbCircle
10
-10.849923903943619
20
-205.18630234064676
30
0
40
1.50000000000001
0
CIRCLE
5
183
100
AcDbEntity
8
0
100
AcDbCircle
10
11.89001012371623
20
-298.71000615376693
30
0
40
1.49999999999998
0
CIRCLE
5
184
100
AcDbEntity
8
0
100
AcDbCircle
10
11.890010108994709
20
-357.79000745652684
30
0
40
1.50000000000001
0
CIRCLE
5
185
100
AcDbEntity
8
0
100
AcDbCircle
10
44.167000910390399
20
-271.98127146426611
30
8.8817841970012523e-15
40
1.49999999999999
0
CIRCLE
5
186
100
AcDbEntity
8
0
100
AcDbCircle
10
30.612821586347501
20
-326.34770680911959
30
0
40
1.49999999999999
0
CIRCLE
5
187
100
AcDbEntity
8
0
100
AcDbCircle
10
18.250005062015688
20
-246.57000383587078
30
-4.4408920985006262e-15
40
2.5
0
CIRCLE
5
188
100
AcDbEntity
8
0
100
AcDbCircle
10
-98.61031341594537
20
-225.59070163721049
30
0
40
2
0
CIRCLE
5
189
100
AcDbEntity
8
0
100
AcDbCircle
10
-86.924449679142299
20
-345.74585701460649
30
1.7763568394002505e-14
40
1.4999878740423966
0
CIRCLE
5
190
100
AcDbEntity
8
0
100
AcDbCircle
10
47.424453713845871
20
-345.74584551139623
30
4.4408920985006262e-15
40
1.4999999999999769
0
CIRCLE
5
191
100
AcDbEntity
8
0
100
AcDbCircle
10
22.750010870831652
20
-301.04717449268526
30
-8.8817841970012523e-15
40
1.4999999999999902
0
CIRCLE
5
192
100
AcDbEntity
8
0
100
AcDbCircle
10
9.2500105613365946
20
-247.07001111463481
30
-1.7763568394002505e-14
40
1.4999999999999925
0
CIRCLE
5
193
100
AcDbEntity
8
0
100
AcDbCircle
10
9.2500105681794054
20
-278.07001284927986
30
-8.8817841970012523e-15
40
1.4999999999999591
0
CIRCLE
5
194
100
AcDbEntity
8
0
100
AcDbCircle
10
-26.749990239268797
20
-247.07001110551116
30
-1.7763568394002505e-14
40
1.4999999999999991
0
CIRCLE
5
195
100
AcDbEntity
8
0
100
AcDbCircle
10
-48.749991766919578
20
-278.07001283736804
30
0
40
1.5000000000000036
0
CIRCLE
5
196
100
AcDbEntity
8
0
100
AcDbCircle
10
-1.7499896832929096
20
-247.07001106736922
30
-1.7763568394002505e-14
40
1.4999999999999789
0
CIRCLE
5
197
100
AcDbEntity
8
0
100
AcDbCircle
10
-37.749990483898266
20
-247.07001105824526
30
-1.7763568394002505e-14
40
1.4999999999999545
0
ENDSEC
0
SECTION
2
OBJECTS
0
DICTIONARY
5
C
100
AcDbDictionary
3
ACAD_GROUP
350
D
3
ACAD_MLINESTYLE
350
17
0
DICTIONARY
5
D
100
AcDbDictionary
0
DICTIONARY
5
1A
330
C
100
AcDbDictionary
0
DICTIONARY
5
17
100
AcDbDictionary
0
ENDSEC
0
EOF
