0
SECTION
2
HEADER
9
$INSUNITS
70
4
9
$ACADVER
1
AC1014
9
$HANDSEED
5
FFFF
0
ENDSEC
0
SECTION
2
TABLES
0
TABLE
2
VPORT
5
8
100
AcDbSymbolTable
0
ENDTAB
0
TABLE
2
LTYPE
5
5
100
AcDbSymbolTable
0
LTYPE
5
14
100
AcDbSymbolTableRecord
100
AcDbLinetypeTableRecord
2
BYBLOCK
70
0
0
LTYPE
5
15
100
AcDbSymbolTableRecord
100
AcDbLinetypeTableRecord
2
BYLAYER
70
0
0
ENDTAB
0
TABLE
2
LAYER
5
2
100
AcDbSymbolTable
70
2
0
LAYER
5
50
100
AcDbSymbolTableRecord
100
AcDbLayerTableRecord
2
0
70
0
6
CONTINUOUS
0
ENDTAB
0
TABLE
2
STYLE
5
3
100
AcDbSymbolTable
70
1
0
STYLE
5
11
100
AcDbSymbolTableRecord
100
AcDbTextStyleTableRecord
2
STANDARD
70
0
0
ENDTAB
0
TABLE
2
VIEW
5
6
100
AcDbSymbolTable
70
0
0
ENDTAB
0
TABLE
2
UCS
5
7
100
AcDbSymbolTable
70
0
0
ENDTAB
0
TABLE
2
APPID
5
9
100
AcDbSymbolTable
70
2
0
APPID
5
12
100
AcDbSymbolTableRecord
100
AcDbRegAppTableRecord
2
ACAD
70
0
0
ENDTAB
0
TABLE
2
DIMSTYLE
5
A
100
AcDbSymbolTable
70
1
0
ENDTAB
0
TABLE
2
BLOCK_RECORD
5
1
100
AcDbSymbolTable
70
1
0
BLOCK_RECORD
5
1F
100
AcDbSymbolTableRecord
100
AcDbBlockTableRecord
2
*MODEL_SPACE
0
BLOCK_RECORD
5
1B
100
AcDbSymbolTableRecord
100
AcDbBlockTableRecord
2
*PAPER_SPACE
0
ENDTAB
0
ENDSEC
0
SECTION
2
BLOCKS
0
BLOCK
5
20
100
AcDbEntity
100
AcDbBlockBegin
2
*MODEL_SPACE
0
ENDBLK
5
21
100
AcDbEntity
100
AcDbBlockEnd
0
BLOCK
5
1C
100
AcDbEntity
100
AcDbBlockBegin
2
*PAPER_SPACE
0
ENDBLK
5
1D
100
AcDbEntity
100
AcDbBlockEnd
0
ENDSEC
0
SECTION
2
ENTITIES
0
ARC
5
100
100
AcDbEntity
8
0
100
AcDbCircle
10
-41.314836851425589
20
-351.3442305997296
30
2.2204460492503131e-15
40
1.9999950212325992
100
AcDbArc
50
140.58929578570491
51
319.41070421135714
0
LINE
5
101
100
AcDbEntity
8
0
100
AcDbLine
10
-42.860062959268888
20
-350.07448402635578
30
2.2204460492503131e-15
11
-42.833311937175367
21
-350.04259652501611
31
1.1102230246251565e-15
0
ARC
5
102
100
AcDbEntity
8
0
100
AcDbCircle
10
-41.314836851425589
20
-351.3442305997296
30
2.2204460492503131e-15
40
1.9999950212326474
100
AcDbArc
50
-39.396874072479704
51
139.39687824032012
0
LINE
5
103
100
AcDbEntity
8
0
100
AcDbLine
10
-39.769304295255452
20
-352.6136041471039
30
2.2204460492503131e-15
11
-39.796054883962704
21
-352.64549207240327
31
2.2204460492503131e-15
0
LWPOLYLINE
5
104
100
AcDbEntity
8
0
100
AcDbPolyline
90
4
70
1
43
0.0
10
82.360047756879567
20
-350.07448402635583
42
-0.98976738006571885
10
79.296039681573376
20
-352.64549207240344
10
79.269289088561351
20
-352.61360414186271
42
-0.98952849417100808
10
82.333289501863334
20
-350.04260259415901
0
LWPOLYLINE
5
105
100
AcDbEntity
8
0
100
AcDbPolyline
90
6
70
1
43
0.0
10
19.749992398805468
20
-374.82000753282824
42
-0.099388916619019371
10
14.249981231682654
20
-373.71582437549023
10
14.249981231682675
20
-347.42419027294238
42
-0.099388916619019371
10
19.749992398805492
20
-346.32000711560465
42
-0.099388916619015
10
25.250003565928054
20
-347.42419027294267
10
25.25000356592799
20
-373.71582437549029
42
-0.09938891661901568
0
LWPOLYLINE
5
106
100
AcDbEntity
8
0
100
AcDbPolyline
90
32
70
1
43
0.0
10
34.750003073301968
20
-378.44993195750595
42
-0.074671527409826216
10
4.749981231689091
20
-378.44993523768886
10
4.7499812316894108
20
-329.98939871178618
10
-22.250018768310582
20
-329.98939871178618
10
-22.250018768310543
20
-370.42315098299628
42
-0.028721428746108738
10
-32.499836961495205
20
-365.00470231864313
10
-32.499836669657711
20
-362.06947234748202
42
-0.16562065121877298
10
-72.60337079136977
20
-312.82000732421886
10
-52.250018768310547
20
-312.82000732421886
42
0.41421356237309503
10
-50.250018768310554
20
-310.82000732421886
10
-50.250018768310518
20
-246.32000732421889
42
0.41421356237309503
10
-52.250018768310511
20
-244.32000732421892
10
-72.603370791369656
20
-244.32000732421884
42
-0.098364990345055539
10
-52.500019935262188
20
-211.621210014106
10
-52.500019935262102
20
-207.99425134969539
42
-0.027717197912148689
10
-44.250018768310468
20
-200.43550790174862
10
-44.250018768310504
20
-229.15061356953518
10
83.750003565921318
20
-229.15061356953538
10
83.750003565921233
20
-200.43550790174868
42
-0.027717197912148911
10
92.000004732872966
20
-207.99425134969553
10
92.000004732872966
20
-211.62121001410617
42
-0.098364990345055428
10
112.10335558898052
20
-244.32000732421903
10
91.75000356592129
20
-244.32000732421909
42
0.41421356237309503
10
89.750003565921332
20
-246.32000732421909
10
89.750003565921332
20
-310.82000732421909
42
0.41421356237309503
10
91.750003565921361
20
-312.82000732421909
10
112.10335558898039
20
-312.82000732421898
42
-0.1656206512187732
10
71.999821467268461
20
-362.06947234748219
10
71.99982175910614
20
-365.00470231864318
42
-0.028721428746109293
10
61.75000356592129
20
-370.42315098299645
10
61.750003565921361
20
-329.98939871178635
10
34.750003565921297
20
-329.98939871178641
0
CIRCLE
5
107
100
AcDbEntity
8
0
100
AcDbCircle
10
11.499981505153869
20
-360.57000732421625
30
-3.3306690738754696e-15
40
1.2500000000000244
0
CIRCLE
5
108
100
AcDbEntity
8
0
100
AcDbCircle
10
-64.238860131047559
20
-322.96453994418107
30
1.1102230246251565e-15
40
1.5000000000000202
0
CIRCLE
5
109
100
AcDbEntity
8
0
100
AcDbCircle
10
-59.110339869338517
20
-225.59070447289739
30
1.1102230246251565e-15
40
2
0
CIRCLE
5
110
100
AcDbEntity
8
0
100
AcDbCircle
10
-64.238860131048483
20
-234.17547470425666
30
1.1102230246251565e-15
40
1.5000000000000202
0
CIRCLE
5
111
100
AcDbEntity
8
0
100
AcDbCircle
10
103.73884492865926
20
-234.17547470425686
30
-2.4424906541753444e-14
40
1.5000000000000202
0
CIRCLE
5
112
100
AcDbEntity
8
0
100
AcDbCircle
10
98.610324666949296
20
-225.59070447289756
30
-2.2204460492503131e-14
40
2
0
CIRCLE
5
113
100
AcDbEntity
8
0
100
AcDbCircle
10
103.73884492865834
20
-322.9645399441813
30
-2.4424906541753444e-14
40
1.5000000000000202
0
CIRCLE
5
114
100
AcDbEntity
8
0
100
AcDbCircle
10
28.00000329245691
20
-360.57000732421648
30
-5.5511151231257827e-15
40
1.2500000000000244
0
ENDSEC
0
SECTION
2
OBJECTS
0
DICTIONARY
5
C
100
AcDbDictionary
3
ACAD_GROUP
350
D
3
ACAD_MLINESTYLE
350
17
0
DICTIONARY
5
D
100
AcDbDictionary
0
DICTIONARY
5
1A
330
C
100
AcDbDictionary
0
DICTIONARY
5
17
100
AcDbDictionary
0
ENDSEC
0
EOF
